HIERARCHY
ROOT pelvis
{
  OFFSET 0 100 0
  CHANNELS 6 Xposition Yposition Zposition Zrotation Xrotation Yrotation
  JOINT pelvis_right_femur
  {
    OFFSET -10.78128 -3.44521 -0.5502486
    CHANNELS 3 Zrotation Xrotation Yrotation
    JOINT right_femur_tibia
    {
      OFFSET -0.8047443 -44.0398 -0.1307829
      CHANNELS 3 Zrotation Xrotation Yrotation
      JOINT right_tibia_foot
      {
        OFFSET 3.006224 -47.83518 -5
        CHANNELS 3 Zrotation Xrotation Yrotation
        End Site
        {
          OFFSET 0 -5 15
        }
      }
    }
  }
  JOINT pelvis_left_femur
  {
    OFFSET 10.78128 -3.44521 -0.5502486
    CHANNELS 3 Zrotation Xrotation Yrotation
    JOINT left_femur_tibia
    {
      OFFSET 0.8047443 -44.0398 -0.1307829
      CHANNELS 3 Zrotation Xrotation Yrotation
      JOINT left_tibia_foot
      {
        OFFSET -4.370144 -48.10324 -4.275266
        CHANNELS 3 Zrotation Xrotation Yrotation
        End Site
        {
          OFFSET 0 -5 15
        }
      }
    }
  }
  JOINT pelvis_spine1
  {
    OFFSET 0 6.468898 -3.129235
    CHANNELS 3 Zrotation Xrotation Yrotation
    JOINT spine1
    {
      OFFSET 0 23.15396 4.99043
      CHANNELS 3 Zrotation Xrotation Yrotation
      JOINT spine2
      {
        OFFSET 0 20.79997 -5.064912
        CHANNELS 3 Zrotation Xrotation Yrotation
        JOINT neck
        {
          OFFSET 0 14.38658 9.616178
          CHANNELS 3 Zrotation Xrotation Yrotation
          End Site
          {
            OFFSET 0 20 0
          }
        }
      }
      JOINT right_manubrium
      {
        OFFSET -5.722621 16.35077 3.967754
        CHANNELS 3 Zrotation Xrotation Yrotation
        JOINT right_clavicle
        {
          OFFSET -13.16364 1.694482 -4.693211
          CHANNELS 3 Zrotation Xrotation Yrotation
          JOINT right_humerus
          {
            OFFSET -28.5034 -0.3100689 -2.792744
            CHANNELS 3 Zrotation Xrotation Yrotation
            JOINT right_radius
            {
              OFFSET -25.15693 0.02248979 -1.271978
              CHANNELS 3 Zrotation Xrotation Yrotation
              End Site
              {
                OFFSET -15 0 0
              }
            }
          }
        }
      }
      JOINT left_manubrium
      {
        OFFSET 5.722621 16.35077 3.967754
        CHANNELS 3 Zrotation Xrotation Yrotation
        JOINT left_clavicle
        {
          OFFSET 13.16364 1.694482 -4.693211
          CHANNELS 3 Zrotation Xrotation Yrotation
          JOINT left_humerus
          {
            OFFSET 29.39168 -1.063119 -2.237045
            CHANNELS 3 Zrotation Xrotation Yrotation
            JOINT left_radius
            {
              OFFSET 24.59957 -0.9528479 0.9047498
              CHANNELS 3 Zrotation Xrotation Yrotation
              End Site
              {
                OFFSET 15 -0 -0
              }
            }
          }
        }
      }
    }
  }
}
MOTION
Frames: 21
Frame Time: 0.0416666666667
-1878.254 105.3845 1796.933 -9.806535 5.089776 -114.6569 6.361066 -1.546014 -8.596719 -0 2.855855 -0 -17.88718 7.006845 3.312026 0.04521574 -2.402506 -1.469626 -0 39.32183 -0 4.010066 -4.58897 14.31832 1.376146 -2.551731 4.34392 -0.009144665 16.83137 -6.120589 1.080177 23.04723 3.873697 3.432713 -18.75291 3.801739 -5.150408 -23.32206 12.34723 95.72079 11.96623 -17.33988 -0 0 10.12491 -27.03825 9.77494 11.71482 6.259984 -28.75189 -10.09215 -88.51375 3.445463 17.50744 0 0 -14.45808 23.67256 14.02012 -17.88784
-1884.576 105.4577 1794.152 -9.381943 5.008438 -115.4841 6.511438 2.276112 -7.902193 -0 2.794907 -0 -17.17049 4.344753 3.324957 0.7397651 -6.675342 -1.544376 -0 35.6939 -0 3.947309 -4.160407 15.25451 1.242079 -2.490151 4.956774 -0.1513403 16.49921 -5.680893 1.090826 22.91016 3.832472 3.34846 -18.8464 3.847316 -4.878599 -24.2691 12.30119 94.21817 12.87015 -15.55236 -0 0 12.50443 -27.00129 9.775297 12.28092 6.126532 -27.78218 -9.517314 -89.44008 4.436726 19.67024 0 0 -12.84411 22.16855 14.34629 -15.97497
-1890.744 105.2222 1791.523 -8.910903 4.880641 -116.3392 6.532369 5.984089 -7.244081 -0 3.059829 -0 -16.5505 1.694803 3.465407 1.345589 -10.84947 -1.768974 -0 30.92628 -0 4.10919 -3.928109 16.3367 1.056789 -2.480772 5.545454 -0.2922332 16.16596 -5.250586 1.083101 22.76376 3.819471 3.275615 -19.01421 3.916822 -4.61076 -25.33024 12.24834 92.68197 13.75761 -13.6758 -0 0 15.00437 -26.91414 9.686641 12.85986 6.014534 -26.82299 -8.946097 -90.49369 5.374727 21.98193 0 0 -11.12439 20.77372 14.69549 -14.19206
-1896.741 104.6652 1789.064 -8.4345 4.72246 -117.2007 6.439096 9.419943 -6.614115 -0 3.644189 -0 -15.98675 -0.802316 3.671816 1.829548 -14.72899 -2.103121 -0 25.60464 -0 4.401591 -3.852009 17.46676 0.8373687 -2.502726 6.084425 -0.4268381 15.83626 -4.845815 1.06588 22.62067 3.83144 3.213219 -19.21681 4.007715 -4.344428 -26.39699 12.19273 91.18199 14.59855 -11.81743 -0 0 17.45792 -26.79316 9.547148 13.42001 5.916677 -25.89731 -8.39833 -91.59591 6.24224 24.27089 0 0 -9.416179 19.47844 15.03696 -12.53038
-1902.573 103.8187 1786.769 -8.015183 4.559239 -118.0438 6.237092 12.39605 -6.012247 -0 4.643396 -0 -15.43178 -2.9321 3.87125 2.1483 -18.05009 -2.506288 -0 20.42745 -0 4.711741 -3.893593 18.52846 0.5985012 -2.52913 6.53711 -0.5551251 15.51733 -4.482303 1.051162 22.50091 3.866661 3.160383 -19.39691 4.119805 -4.077437 -27.32927 12.13591 89.81497 15.35794 -10.11114 -0 0 19.65118 -26.67388 9.399308 13.9287 5.823013 -25.02719 -7.902166 -92.62814 7.031707 26.31406 0 0 -7.848397 18.27647 15.32483 -10.98581
-1908.275 102.763 1784.606 -7.735804 4.42608 -118.8384 5.925989 14.75525 -5.461907 -0 6.244348 -0 -14.8562 -4.423113 4.001679 2.260754 -20.54238 -2.934998 -0 16.06775 -0 4.942101 -4.01228 19.40968 0.3515759 -2.535209 6.86302 -0.6862014 15.22695 -4.169258 1.051155 22.43015 3.922943 3.117186 -19.48731 4.25121 -3.819438 -27.99202 12.07647 88.69976 15.98162 -8.687548 -0 0 21.36441 -26.62019 9.275706 14.36466 5.723208 -24.23683 -7.497361 -93.45225 7.722061 27.88397 0 0 -6.521109 17.19448 15.50824 -9.597059
-1913.907 101.6144 1782.522 -7.673967 4.358553 -119.5497 5.508187 16.42568 -5.010433 -0 8.637524 -0 -14.26796 -5.032575 4.033039 2.145827 -22.02208 -3.349932 -0 12.95261 -0 5.050357 -4.171242 20.03829 0.1038465 -2.508712 7.031495 -0.8355228 14.99266 -3.906809 1.073374 22.43113 3.996664 3.085082 -19.43477 4.396012 -3.59493 -28.30626 12.01085 87.9466 16.40372 -7.634282 -0 0 22.44412 -26.70636 9.185497 14.72543 5.611925 -23.55219 -7.226289 -93.95521 8.268535 28.82454 0 0 -5.471077 16.30107 15.55515 -8.456265
-1919.541 100.5034 1780.457 -7.87491 4.379975 -120.1414 4.992227 17.42333 -4.715125 -0 11.93153 -0 -13.71164 -4.623808 3.97334 1.807302 -22.4361 -3.727525 -0 11.13843 -0 5.064768 -4.349116 20.40205 -0.1420065 -2.454535 7.029837 -1.017792 14.84372 -3.689046 1.117745 22.51563 4.083819 3.066771 -19.21964 4.54553 -3.435824 -28.27245 11.93567 87.62591 16.56587 -6.976601 -0 0 22.84485 -26.98813 9.112038 15.02398 5.492438 -22.99826 -7.121566 -94.08528 8.60833 29.09422 0 0 -4.671002 15.68968 15.46828 -7.686011
-1925.245 99.55434 1778.36 -8.346425 4.49548 -120.5767 4.388437 17.79906 -4.62719 -0 16.13911 -0 -13.24994 -3.168924 3.856662 1.261816 -21.81872 -4.064874 -0 10.39068 -0 5.061976 -4.547875 20.53451 -0.3872415 -2.389808 6.85884 -1.24144 14.80311 -3.51028 1.178101 22.68382 4.182037 3.065706 -18.85494 4.691822 -3.370397 -27.94641 11.84954 87.76355 16.43067 -6.694549 -0 0 22.60432 -27.48752 9.023566 15.2767 5.375292 -22.59745 -7.20135 -93.85063 8.676418 28.74048 0 0 -4.063805 15.45125 15.27799 -7.404233
-1931.075 98.87537 1776.192 -9.068111 4.692829 -120.8194 3.703832 17.56815 -4.781846 -0 21.20191 -0 -12.94324 -0.7071601 3.72429 0.5239976 -20.20945 -4.376495 -0 10.36548 -0 5.129056 -4.795651 20.48392 -0.6353499 -2.334928 6.522391 -1.505499 14.88279 -3.371674 1.245679 22.92819 4.29224 3.085509 -18.37367 4.830841 -3.414684 -27.39509 11.75367 88.35536 15.98754 -6.759353 -0 0 21.78586 -28.19057 8.888313 15.48949 5.27477 -22.37067 -7.47104 -93.29297 8.424873 27.84065 0 0 -3.608308 15.65345 15.0221 -7.697262
-1937.064 98.55315 1773.934 -9.986741 4.941178 -120.8389 2.946532 16.65962 -5.190395 -0 26.94652 -0 -12.84005 2.65116 3.612596 -0.3932817 -17.61267 -4.689658 -0 10.72762 -0 5.336659 -5.1491 20.29325 -0.8884538 -2.308099 6.024141 -1.793623 15.07873 -3.288217 1.310559 23.2329 4.41893 3.129242 -17.8269 4.96347 -3.565498 -26.67265 11.65224 89.36994 15.26552 -7.160943 -0 0 20.44901 -29.03544 8.686849 15.64501 5.208018 -22.3407 -7.920274 -92.47233 7.846571 26.47023 0 0 -3.317522 16.3248 14.73421 -8.597626
-1943.21 98.63756 1771.585 -10.98342 5.185021 -120.624 2.146685 14.9087 -5.825705 -0 32.90266 -0 -12.97607 6.623612 3.549915 -1.453754 -14.04654 -5.039648 -0 11.172 -0 5.724011 -5.690392 19.99967 -1.139581 -2.32452 5.379417 -2.061911 15.36214 -3.295913 1.360073 23.56427 4.567674 3.198036 -17.301 5.09326 -3.792226 -25.83103 11.55423 90.72099 14.36228 -7.914647 -0 0 18.67568 -29.87941 8.423253 15.6921 5.197449 -22.53497 -8.507643 -91.47777 7.009988 24.72464 0 0 -3.286019 17.43052 14.45013 -10.04962
-1949.464 99.11097 1769.167 -11.84148 5.348113 -120.2079 1.389293 12.12835 -6.606212 -0 38.07863 -0 -13.37161 10.62571 3.554343 -2.555595 -9.675278 -5.454624 -0 11.45848 -0 6.280157 -6.494849 19.63915 -1.360561 -2.395646 4.638794 -2.230381 15.67387 -3.451242 1.377686 23.86033 4.737586 3.28886 -16.93187 5.219222 -4.034714 -24.94878 11.47554 92.23186 13.46447 -9.047217 -0 0 16.626 -30.47893 8.135954 15.54785 5.27068 -22.98274 -9.143414 -90.44157 6.087196 22.76712 0 0 -3.690405 18.84602 14.22302 -11.87384
-1955.735 99.86388 1766.708 -12.30306 5.372906 -119.6774 0.8218024 8.282341 -7.415204 -0 41.08687 -0 -14.02915 13.86738 3.630558 -3.521402 -4.906419 -5.919607 -0 11.57145 -0 6.929726 -7.552445 19.23346 -1.496456 -2.525143 3.89575 -2.207542 15.94701 -3.805811 1.348339 24.04459 4.910576 3.393763 -16.86456 5.324609 -4.231275 -24.13689 11.43696 93.67463 12.78187 -10.56381 -0 0 14.53611 -30.57314 7.890461 15.13511 5.449232 -23.70585 -9.710761 -89.50934 5.293596 20.82414 0 0 -4.713744 20.39022 14.11511 -13.81779
-1961.932 100.7205 1764.219 -12.24402 5.276675 -119.1383 0.5809455 3.613406 -8.181859 -0 40.92351 -0 -14.95603 15.84031 3.784995 -4.185236 -0.2363374 -6.352935 -0 11.82109 -0 7.576702 -8.720417 18.76876 -1.487989 -2.708467 3.241475 -1.954493 16.16357 -4.36368 1.268306 24.07504 5.052139 3.504557 -17.1544 5.374662 -4.377085 -23.49312 11.45526 94.92471 12.37736 -12.4162 -0 0 12.58935 -30.07777 7.732439 14.44434 5.731447 -24.71391 -10.14767 -88.76381 4.703384 19.07536 0 0 -6.400196 21.96741 14.14574 -15.75469
-1967.994 101.5084 1761.684 -11.75661 5.141104 -118.6706 0.6912308 -1.489107 -8.930871 -0 37.62666 -0 -16.1862 16.65018 4.048256 -4.503269 4.05202 -6.657828 -0 12.5594 -0 8.190397 -9.817498 18.21758 -1.311373 -2.941463 2.707167 -1.512236 16.37191 -5.076224 1.145572 23.97135 5.133025 3.618575 -17.73532 5.336764 -4.534919 -23.05797 11.53403 96.03962 12.10767 -14.50852 -0 0 10.81387 -29.14636 7.646647 13.54429 6.093592 -26.00355 -10.4916 -88.19886 4.173278 17.56651 0 0 -8.604817 23.6525 14.26049 -17.79553
-1973.897 102.1109 1759.07 -11.02769 5.043331 -118.3246 1.073639 -6.647368 -9.705556 -0 31.98508 -0 -17.71129 16.70852 4.43768 -4.53527 7.87635 -6.781549 -0 13.92972 -0 8.781018 -10.7235 17.5761 -0.9865404 -3.215644 2.280488 -0.9583925 16.62511 -5.872784 0.9942726 23.78389 5.144012 3.734158 -18.48717 5.202067 -4.765525 -22.81863 11.66378 97.12025 11.78961 -16.71113 -0 0 9.167328 -28.01574 7.591492 12.53633 6.50014 -27.52767 -10.80951 -87.77566 3.527674 16.26865 0 0 -11.0916 25.53191 14.36812 -20.07108
-1979.65 102.4858 1756.338 -10.24799 5.02716 -118.1288 1.623137 -11.41713 -10.48196 -0 25.08428 -0 -19.38263 16.38937 4.897814 -4.368077 11.11637 -6.691309 -0 16.04071 -0 9.288776 -11.3427 16.85309 -0.5584774 -3.497453 1.954642 -0.3788188 16.93214 -6.66527 0.8373803 23.5672 5.08891 3.841868 -19.26453 4.986475 -5.076208 -22.71531 11.82612 98.17942 11.33518 -18.84248 -0 0 7.642311 -26.91196 7.557744 11.53613 6.897984 -29.14912 -11.13022 -87.4591 2.718124 15.15058 0 0 -13.59347 27.51026 14.38259 -22.48114
-1985.303 102.673 1753.448 -9.611504 5.111696 -118.0878 2.248381 -15.20968 -11.16124 -0 18.21195 -0 -20.89944 15.98955 5.298212 -4.089881 13.5238 -6.343249 -0 19.10313 -0 9.549215 -11.55855 16.05403 -0.08729873 -3.721404 1.742011 0.129222 17.25809 -7.339556 0.7093578 23.37826 4.977725 3.923613 -19.88871 4.72457 -5.421281 -22.64288 11.99588 99.13517 10.76243 -20.66286 -0 0 6.283684 -26.05679 7.583898 10.67846 7.212479 -30.63137 -11.44026 -87.21314 1.830474 14.19023 0 0 -15.80708 29.28055 14.2563 -24.66099
-1990.946 102.7848 1750.367 -9.278055 5.295487 -118.1846 2.888627 -17.43031 -11.61095 -0 12.60729 -0 -21.9126 15.70392 5.488879 -3.772796 14.80001 -5.706203 -0 23.27602 -0 9.372407 -11.26668 15.19834 0.3624276 -3.813509 1.664918 0.4739717 17.54363 -7.779948 0.6459668 23.26524 4.825037 3.96042 -20.19245 4.460251 -5.725779 -22.49161 12.14687 99.8566 10.17197 -21.9332 -0 0 5.179066 -25.62797 7.730008 10.09098 7.370534 -31.7055 -11.69883 -87.00538 1.033336 13.38829 0 0 -17.44265 30.44884 14.01218 -26.13331
-1996.675 102.9589 1747.079 -9.274939 5.55035 -118.397 3.52496 -17.79602 -11.73317 -0 8.868149 -0 -22.2148 15.50144 5.383288 -3.432925 14.75155 -4.824698 -0 28.34011 -0 8.692339 -10.46319 14.35561 0.7442424 -3.738871 1.742726 0.6172463 17.73158 -7.929889 0.6620623 23.23901 4.647661 3.943915 -20.12376 4.229772 -5.922606 -22.23124 12.26225 100.2234 9.709474 -22.52662 -0 0 4.450191 -25.65388 8.025239 9.833504 7.346821 -32.20708 -11.85173 -86.83356 0.5035383 12.80497 0 0 -18.3494 30.76019 13.73698 -26.57713
